<?xml version="1.0" standalone="no"?>
<!DOCTYPE svg PUBLIC "-//W3C//DTD SVG 20010904//EN"
 "http://www.w3.org/TR/2001/REC-SVG-20010904/DTD/svg10.dtd">
<svg version="1.0" xmlns="http://www.w3.org/2000/svg"
 width="238.000000pt" height="250.000000pt" viewBox="0 0 238.000000 250.000000"
 preserveAspectRatio="xMidYMid meet">

<g transform="translate(0.000000,250.000000) scale(0.100000,-0.100000)"
fill="#000000" stroke="none">
<path d="M960 1745 l0 -225 225 0 225 0 0 225 0 225 -225 0 -225 0 0 -225z
m322 97 c75 -75 41 -202 -62 -232 -97 -28 -192 65 -170 166 24 104 157 142
232 66z"/>
<path d="M1119 1811 c-21 -22 -29 -39 -29 -66 0 -27 8 -44 29 -66 39 -38 87
-39 130 -3 65 54 22 164 -64 164 -27 0 -44 -8 -66 -29z"/>
<path d="M470 1745 l0 -215 225 0 226 0 -1 215 -1 215 -225 0 -224 0 0 -215z"/>
<path d="M1459 1948 c-1 -7 -2 -104 -3 -215 l-1 -203 223 0 222 0 0 215 0 215
-220 0 c-169 0 -220 -3 -221 -12z"/>
<path d="M470 1255 l0 -225 225 0 225 0 0 225 0 225 -225 0 -225 0 0 -225z
m262 135 c11 0 38 -17 59 -39 36 -36 39 -43 39 -95 0 -50 -4 -61 -32 -92 -57
-61 -141 -64 -200 -7 -56 54 -56 142 0 197 30 28 77 47 100 40 8 -2 23 -4 34
-4z"/>
<path d="M631 1324 c-26 -21 -31 -33 -31 -69 0 -36 5 -48 31 -69 43 -36 91
-35 130 3 21 22 29 39 29 66 0 27 -8 44 -29 66 -39 38 -87 39 -130 3z"/>
<path d="M1452 1258 l3 -223 223 -3 222 -2 0 225 0 225 -225 0 -225 0 2 -222z
m263 132 c24 0 83 -59 95 -95 22 -68 -25 -154 -98 -174 -44 -13 -100 3 -135
38 -26 25 -31 40 -35 89 -4 57 -2 62 30 97 32 35 86 58 116 49 8 -2 20 -4 27
-4z"/>
<path d="M1609 1321 c-21 -22 -29 -39 -29 -66 0 -27 8 -44 29 -66 39 -38 87
-39 130 -3 26 21 31 33 31 68 0 88 -98 129 -161 67z"/>
<path d="M960 1255 l0 -215 225 0 225 0 0 215 0 215 -225 0 -225 0 0 -215z
m280 90 c41 42 57 52 67 43 21 -17 16 -30 -37 -83 l-50 -51 50 -49 c52 -52 58
-63 38 -83 -10 -10 -24 0 -68 43 l-56 55 -54 -55 c-41 -42 -57 -52 -67 -43
-22 18 -15 31 37 83 l50 49 -50 51 c-53 53 -57 64 -38 83 10 10 24 0 68 -43
l56 -55 54 55z"/>
<path d="M960 765 l0 -225 225 0 225 0 0 225 0 225 -225 0 -225 0 0 -225z
m172 85 l52 -50 34 32 c19 18 43 41 54 51 22 21 34 22 42 2 3 -10 -13 -34 -46
-66 l-51 -50 53 -54 c46 -47 52 -56 40 -70 -12 -14 -19 -11 -64 34 -29 28 -56
51 -61 51 -6 -1 -32 -23 -60 -50 -44 -43 -52 -48 -65 -35 -13 13 -8 22 40 70
l54 55 -52 49 c-36 33 -50 54 -46 65 10 25 21 20 76 -34z"/>
<path d="M470 765 l0 -215 224 0 225 0 0 215 -1 215 -224 0 -224 0 0 -215z"/>
<path d="M1455 765 l0 -215 223 0 222 0 0 215 0 215 -222 0 -223 0 0 -215z"/>
</g>
</svg>
